<svg width="40" height="40" viewBox="0 0 40 40" fill="none" xmlns="http://www.w3.org/2000/svg">
<g clip-path="url(#clip0_362_498)">
<path d="M4 20C4 24.2435 5.68571 28.3131 8.68629 31.3137C11.6869 34.3143 15.7565 36 20 36C24.2435 36 28.3131 34.3143 31.3137 31.3137C34.3143 28.3131 36 24.2435 36 20C36 15.7565 34.3143 11.6869 31.3137 8.68629C28.3131 5.68571 24.2435 4 20 4C15.7565 4 11.6869 5.68571 8.68629 8.68629C5.68571 11.6869 4 15.7565 4 20Z" fill="white"/>
<path d="M19.9998 0.847656C9.39981 0.847656 0.799805 9.44766 0.799805 20.0477C0.799805 30.6477 9.39981 39.2477 19.9998 39.2477C30.5998 39.2477 39.1998 30.6477 39.1998 20.0477C39.1998 9.44766 30.5998 0.847656 19.9998 0.847656ZM14.8358 29.7477H10.4818V16.6737H14.8358V29.7477ZM12.6638 14.8817H12.6358C11.1718 14.8817 10.2278 13.8817 10.2278 12.6177C10.2278 11.3377 11.1998 10.3637 12.6898 10.3637C14.1818 10.3637 15.0998 11.3357 15.1278 12.6177C15.1278 13.8817 14.1818 14.8817 12.6638 14.8817ZM30.5258 29.7457H26.1818V22.7537C26.1818 20.9997 25.5538 19.7997 23.9718 19.7997C22.7718 19.7997 22.0538 20.6077 21.7358 21.3897C21.6178 21.6717 21.5898 22.0637 21.5898 22.4537V29.7537H17.2358C17.2358 29.7537 17.2898 17.9077 17.2358 16.6817H21.5898V18.5357C22.1718 17.6457 23.1998 16.3817 25.5098 16.3817C28.3718 16.3817 30.5178 18.2537 30.5178 22.2617V29.7457H30.5278H30.5258Z" fill="#0077B5"/>
</g>
<defs>
<clipPath id="clip0_362_498">
<rect width="40" height="40" fill="white"/>
</clipPath>
</defs>
</svg>
