<svg width="34" height="34" viewBox="0 0 34 34" fill="none" xmlns="http://www.w3.org/2000/svg">
<g id="Frame 5008">
<g id="Group">
<path id="Vector" d="M13.4119 2.03902C8.8378 4.17771 3.60877 6.73594 3.37342 6.95083C3.18922 7.11456 3.12783 7.27828 3.14829 7.47271C3.17899 7.78993 3.60877 8.02529 5.70652 8.91555L6.91401 9.4272L8.16243 8.70066C10.4546 7.36015 12.3375 6.57221 13.9747 6.25499C14.9162 6.08103 16.932 6.11173 17.8939 6.30615C19.6438 6.68477 21.0866 7.28852 23.563 8.69043L24.9035 9.44766L26.1212 8.89509C26.7863 8.5881 27.431 8.30158 27.564 8.27088L27.7892 8.19925V10.5017C27.7892 12.7324 27.7789 12.8041 27.5743 12.8655C27.1957 12.9883 26.6329 13.5715 26.3975 14.0934C26.0803 14.7483 26.0905 15.3828 26.3975 16.0377C26.9808 17.2963 28.3724 17.808 29.5697 17.2145C31.1865 16.4061 31.2991 14.165 29.7846 13.1008L29.3241 12.7734V10.1435V7.51364L29.0785 7.21689C28.9353 7.05316 28.4645 6.7564 28.0245 6.55174C27.5845 6.34709 26.0496 5.64101 24.617 4.98611C23.1844 4.32097 20.7694 3.20558 19.2447 2.49951C15.6325 0.821306 15.9804 0.841772 13.4119 2.03902Z" fill="#139DE7"/>
<path id="Vector_2" d="M14.7643 7.91506C12.7894 8.11972 10.8246 8.92812 8.80876 10.3403L8.04129 10.8724V13.3283V15.7842L8.29711 15.907C8.52223 16.0093 8.62456 15.9888 8.94178 15.7944C10.2107 15.0269 11.8889 14.4539 13.6182 14.1878C15.0304 13.9627 17.3635 14.0446 18.6631 14.3516L19.6147 14.5767L19.584 20.1229L19.5533 25.6589L19.2259 26.3343C18.8063 27.1837 18.0491 27.9614 17.2816 28.34C16.7393 28.5958 16.5858 28.6265 15.6137 28.6265C14.6211 28.6265 14.488 28.606 13.9355 28.3195C13.0861 27.8897 12.4005 27.1837 12.0117 26.3548C11.7456 25.792 11.674 25.485 11.6126 24.6254C11.5102 23.1826 11.1623 22.5584 10.2721 22.1798C9.26924 21.7704 8.10268 22.2616 7.62174 23.3054C7.36591 23.8477 7.35568 25.6589 7.59104 26.6208C7.93896 28.033 8.70643 29.3326 9.84228 30.4377C10.9577 31.5224 12.0731 32.1773 13.5261 32.5764C14.7336 32.9243 16.5653 32.8936 17.7933 32.5252C18.2947 32.382 18.9394 32.1364 19.2259 31.9931C21.1292 31.0312 22.6437 29.2405 23.4214 26.9995L23.7488 26.0683L23.7795 18.5573C23.8102 9.97188 23.9433 10.9747 22.7255 10.1561C21.8046 9.53186 20.1264 8.69276 19.1645 8.36531C17.9161 7.95599 16.1253 7.76156 14.7643 7.91506ZM18.2947 9.68535C19.9729 10.1151 20.5152 10.4426 20.2492 10.8621C20.0957 11.0873 19.625 11.0566 18.53 10.7189C17.8035 10.504 17.3328 10.4324 16.2788 10.3914C14.8564 10.3403 14.0889 10.4426 12.7177 10.8928C11.9912 11.1282 11.7149 11.0873 11.6433 10.7496C11.5921 10.4938 11.8786 10.2891 12.7484 9.96164C14.4983 9.28627 16.3709 9.19417 18.2947 9.68535Z" fill="#139DE7"/>
</g>
</g>
</svg>
