<svg width="40" height="40" viewBox="0 0 40 40" fill="none" xmlns="http://www.w3.org/2000/svg">
<g clip-path="url(#clip0_362_496)">
<path d="M20.0004 0.400391C9.17664 0.400391 0.400391 9.17664 0.400391 20.0004C0.400391 30.8241 9.17664 39.6004 20.0004 39.6004C30.8241 39.6004 39.6004 30.8241 39.6004 20.0004C39.6004 9.17664 30.8241 0.400391 20.0004 0.400391ZM29.4198 15.1748C29.4329 15.3804 29.4329 15.5948 29.4329 15.8048C29.4329 22.2273 24.5416 29.6254 15.6035 29.6254C12.8473 29.6254 10.2923 28.8248 8.13977 27.4466C8.53351 27.4904 8.90977 27.5079 9.31227 27.5079C11.5873 27.5079 13.6785 26.7379 15.3454 25.4341C13.2104 25.3904 11.4166 23.9904 10.8041 22.0654C11.5523 22.1748 12.226 22.1748 12.996 21.9779C10.7735 21.5273 9.10664 19.5716 9.10664 17.2091V17.1479C9.74977 17.511 10.5066 17.7341 11.2985 17.7648C9.94664 16.8635 9.13289 15.3454 9.13289 13.7223C9.13289 12.8166 9.36914 11.9898 9.79352 11.2723C12.1866 14.221 15.7829 16.146 19.8123 16.3516C19.1254 13.0485 21.5929 10.3754 24.5591 10.3754C25.9591 10.3754 27.2191 10.9616 28.1073 11.9066C29.2054 11.701 30.2554 11.2898 31.1916 10.7385C30.8285 11.8629 30.0673 12.8123 29.0566 13.4116C30.0366 13.3066 30.9816 13.0354 31.8566 12.6548C31.196 13.626 30.3691 14.4879 29.4198 15.1748Z" fill="#1296DB"/>
</g>
<defs>
<clipPath id="clip0_362_496">
<rect width="40" height="40" fill="white"/>
</clipPath>
</defs>
</svg>
